HIERARCHY
ROOT Hips
{
	OFFSET 0.000000 97.167313 0.000000
	CHANNELS 6 Xposition Yposition Zposition Xrotation Yrotation Zrotation
	JOINT Spine
	{
		OFFSET 0.000000 13.784798 0.064400
		CHANNELS 3 Xrotation Yrotation Zrotation
		JOINT Spine1
		{
			OFFSET 0.000000 12.037903 0.404700
			CHANNELS 3 Xrotation Yrotation Zrotation
			JOINT Spine2
			{
				OFFSET 0.000000 17.795601 0.420200
				CHANNELS 3 Xrotation Yrotation Zrotation
				JOINT Neck
				{
					OFFSET 0.000000 39.131302 11.954600
					CHANNELS 3 Xrotation Yrotation Zrotation
					JOINT Head
					{
						OFFSET 0.000000 14.456192 15.627699
						CHANNELS 3 Xrotation Yrotation Zrotation
						JOINT HeadTop_End
						{
							OFFSET 0.000000 15.703506 7.603401
							CHANNELS 3 Xrotation Yrotation Zrotation
							End Site
							{
								OFFSET 0.000000 17.447403 0.000000
							}
						}
					}
				}
				JOINT LeftShoulder
				{
					OFFSET 17.399500 24.608795 1.168800
					CHANNELS 3 Xrotation Yrotation Zrotation
					JOINT LeftArm
					{
						OFFSET 18.980635 5.765305 1.818600
						CHANNELS 3 Xrotation Yrotation Zrotation
						JOINT LeftForeArm
						{
							OFFSET 49.290169 0.000000 0.000000
							CHANNELS 3 Xrotation Yrotation Zrotation
							JOINT LeftHand
							{
								OFFSET 31.562012 0.000000 0.000000
								CHANNELS 3 Xrotation Yrotation Zrotation
								JOINT LeftHandThumb1
								{
									OFFSET 6.133995 -4.388519 7.076070
									CHANNELS 3 Xrotation Yrotation Zrotation
									JOINT LeftHandThumb2
									{
										OFFSET 6.037666 -3.485840 3.485847
										CHANNELS 3 Xrotation Yrotation Zrotation
										JOINT LeftHandThumb3
										{
											OFFSET 6.496506 -3.750763 3.750761
											CHANNELS 3 Xrotation Yrotation Zrotation
											JOINT LeftHandThumb4
											{
												OFFSET 5.616882 -3.242905 3.242910
												CHANNELS 3 Xrotation Yrotation Zrotation
												End Site
												{
													OFFSET -1.254608 7.132141 0.375429
												}
											}
										}
									}
								}
								JOINT LeftHandPinky1
								{
									OFFSET 18.920792 -0.453171 -11.426712
									CHANNELS 3 Xrotation Yrotation Zrotation
									JOINT LeftHandPinky2
									{
										OFFSET 4.919586 0.000000 0.000000
										CHANNELS 3 Xrotation Yrotation Zrotation
										JOINT LeftHandPinky3
										{
											OFFSET 5.233047 0.000000 0.000000
											CHANNELS 3 Xrotation Yrotation Zrotation
											JOINT LeftHandPinky4
											{
												OFFSET 5.571716 0.000000 0.000000
												CHANNELS 3 Xrotation Yrotation Zrotation
												End Site
												{
													OFFSET -3.459808 4.342407 -0.466164
												}
											}
										}
									}
								}
								JOINT LeftHandRing1
								{
									OFFSET 22.726120 -0.094986 -6.500475
									CHANNELS 3 Xrotation Yrotation Zrotation
									JOINT LeftHandRing2
									{
										OFFSET 6.408615 0.000000 0.000000
										CHANNELS 3 Xrotation Yrotation Zrotation
										JOINT LeftHandRing3
										{
											OFFSET 6.150223 0.000000 0.000000
											CHANNELS 3 Xrotation Yrotation Zrotation
											JOINT LeftHandRing4
											{
												OFFSET 6.145386 0.000000 0.000000
												CHANNELS 3 Xrotation Yrotation Zrotation
												End Site
												{
													OFFSET -3.671402 4.923981 -0.202372
												}
											}
										}
									}
								}
								JOINT LeftHandMiddle1
								{
									OFFSET 23.373947 0.000000 0.000001
									CHANNELS 3 Xrotation Yrotation Zrotation
									JOINT LeftHandMiddle2
									{
										OFFSET 6.996567 0.000000 0.000000
										CHANNELS 3 Xrotation Yrotation Zrotation
										JOINT LeftHandMiddle3
										{
											OFFSET 7.015945 0.000000 0.000000
											CHANNELS 3 Xrotation Yrotation Zrotation
											JOINT LeftHandMiddle4
											{
												OFFSET 7.721573 0.000000 0.000000
												CHANNELS 3 Xrotation Yrotation Zrotation
												End Site
												{
													OFFSET -4.651108 6.158463 0.251582
												}
											}
										}
									}
								}
								JOINT LeftHandIndex1
								{
									OFFSET 21.310577 -0.490082 6.209344
									CHANNELS 3 Xrotation Yrotation Zrotation
									JOINT LeftHandIndex2
									{
										OFFSET 7.536453 0.000000 0.000000
										CHANNELS 3 Xrotation Yrotation Zrotation
										JOINT LeftHandIndex3
										{
											OFFSET 7.512344 0.000000 0.000000
											CHANNELS 3 Xrotation Yrotation Zrotation
											JOINT LeftHandIndex4
											{
												OFFSET 10.212402 0.000000 0.000001
												CHANNELS 3 Xrotation Yrotation Zrotation
												End Site
												{
													OFFSET -5.180801 8.690506 1.388433
												}
											}
										}
									}
								}
							}
						}
					}
				}
				JOINT RightShoulder
				{
					OFFSET -17.399500 24.608795 1.168800
					CHANNELS 3 Xrotation Yrotation Zrotation
					JOINT RightArm
					{
						OFFSET -18.980635 5.765305 1.818600
						CHANNELS 3 Xrotation Yrotation Zrotation
						JOINT RightForeArm
						{
							OFFSET -49.290169 0.000000 0.000000
							CHANNELS 3 Xrotation Yrotation Zrotation
							JOINT RightHand
							{
								OFFSET -31.562012 0.000000 0.000000
								CHANNELS 3 Xrotation Yrotation Zrotation
								JOINT RightHandThumb1
								{
									OFFSET -6.133995 -4.388519 7.076070
									CHANNELS 3 Xrotation Yrotation Zrotation
									JOINT RightHandThumb2
									{
										OFFSET -6.037666 -3.485840 3.485847
										CHANNELS 3 Xrotation Yrotation Zrotation
										JOINT RightHandThumb3
										{
											OFFSET -6.496506 -3.750763 3.750761
											CHANNELS 3 Xrotation Yrotation Zrotation
											JOINT RightHandThumb4
											{
												OFFSET -5.616882 -3.242905 3.242910
												CHANNELS 3 Xrotation Yrotation Zrotation
												End Site
												{
													OFFSET 1.254608 7.132141 0.375429
												}
											}
										}
									}
								}
								JOINT RightHandIndex1
								{
									OFFSET -21.310577 -0.490082 6.209344
									CHANNELS 3 Xrotation Yrotation Zrotation
									JOINT RightHandIndex2
									{
										OFFSET -7.536453 0.000000 0.000000
										CHANNELS 3 Xrotation Yrotation Zrotation
										JOINT RightHandIndex3
										{
											OFFSET -7.512344 0.000000 0.000000
											CHANNELS 3 Xrotation Yrotation Zrotation
											JOINT RightHandIndex4
											{
												OFFSET -10.212402 0.000000 0.000001
												CHANNELS 3 Xrotation Yrotation Zrotation
												End Site
												{
													OFFSET 5.180801 8.690506 1.388433
												}
											}
										}
									}
								}
								JOINT RightHandMiddle1
								{
									OFFSET -23.373947 0.000000 0.000001
									CHANNELS 3 Xrotation Yrotation Zrotation
									JOINT RightHandMiddle2
									{
										OFFSET -6.996567 0.000000 0.000000
										CHANNELS 3 Xrotation Yrotation Zrotation
										JOINT RightHandMiddle3
										{
											OFFSET -7.015945 0.000000 0.000000
											CHANNELS 3 Xrotation Yrotation Zrotation
											JOINT RightHandMiddle4
											{
												OFFSET -7.721573 0.000000 0.000000
												CHANNELS 3 Xrotation Yrotation Zrotation
												End Site
												{
													OFFSET 4.651108 6.158463 0.251582
												}
											}
										}
									}
								}
								JOINT RightHandRing1
								{
									OFFSET -22.726120 -0.094986 -6.500475
									CHANNELS 3 Xrotation Yrotation Zrotation
									JOINT RightHandRing2
									{
										OFFSET -6.408615 0.000000 0.000000
										CHANNELS 3 Xrotation Yrotation Zrotation
										JOINT RightHandRing3
										{
											OFFSET -6.150223 0.000000 0.000000
											CHANNELS 3 Xrotation Yrotation Zrotation
											JOINT RightHandRing4
											{
												OFFSET -6.145386 0.000000 0.000000
												CHANNELS 3 Xrotation Yrotation Zrotation
												End Site
												{
													OFFSET 3.671402 4.923981 -0.202372
												}
											}
										}
									}
								}
								JOINT RightHandPinky1
								{
									OFFSET -18.920792 -0.453171 -11.426712
									CHANNELS 3 Xrotation Yrotation Zrotation
									JOINT RightHandPinky2
									{
										OFFSET -4.919586 0.000000 0.000000
										CHANNELS 3 Xrotation Yrotation Zrotation
										JOINT RightHandPinky3
										{
											OFFSET -5.233047 0.000000 0.000000
											CHANNELS 3 Xrotation Yrotation Zrotation
											JOINT RightHandPinky4
											{
												OFFSET -5.571716 0.000000 0.000000
												CHANNELS 3 Xrotation Yrotation Zrotation
												End Site
												{
													OFFSET 3.459808 4.342407 -0.466164
												}
											}
										}
									}
								}
							}
						}
					}
				}
			}
		}
	}
	JOINT LeftUpLeg
	{
		OFFSET 19.899099 -7.885101 -3.429500
		CHANNELS 3 Xrotation Yrotation Zrotation
		JOINT LeftLeg
		{
			OFFSET 1.745560 -36.997807 10.304700
			CHANNELS 3 Xrotation Yrotation Zrotation
			JOINT LeftFoot
			{
				OFFSET -1.745558 -29.803308 -13.615400
				CHANNELS 3 Xrotation Yrotation Zrotation
				JOINT LeftToeBase
				{
					OFFSET 1.181900 -18.539904 15.226099
					CHANNELS 3 Xrotation Yrotation Zrotation
					JOINT LeftToe_End
					{
						OFFSET -0.863701 1.402801 16.534700
						CHANNELS 3 Xrotation Yrotation Zrotation
						End Site
						{
							OFFSET 0.000000 16.616566 0.000000
						}
					}
				}
			}
		}
	}
	JOINT RightUpLeg
	{
		OFFSET -19.899099 -7.885101 -3.429500
		CHANNELS 3 Xrotation Yrotation Zrotation
		JOINT RightLeg
		{
			OFFSET -1.745560 -36.997807 10.304700
			CHANNELS 3 Xrotation Yrotation Zrotation
			JOINT RightFoot
			{
				OFFSET 1.745558 -29.803308 -13.615400
				CHANNELS 3 Xrotation Yrotation Zrotation
				JOINT RightToeBase
				{
					OFFSET -1.181900 -18.539904 15.226099
					CHANNELS 3 Xrotation Yrotation Zrotation
					JOINT RightToe_End
					{
						OFFSET 0.863701 1.402801 16.534700
						CHANNELS 3 Xrotation Yrotation Zrotation
						End Site
						{
							OFFSET 0.000000 16.616566 0.000000
						}
					}
				}
			}
		}
	}
}
MOTION
Frames: 5
Frame Time: 0.033333
0.383442 88.574440 5.209035 4.205473 -1.418708 -0.868111 -0.665592 1.867223 -0.799359 -0.447953 1.086587 -0.311542 -0.445205 1.086955 -0.312471 -1.680395 -0.646324 -0.579679 -6.017168 -4.242194 2.059638 -0.000000 0.000000 0.000000 -2.378479 -6.786320 -4.889176 12.493261 4.692501 -64.989967 0.000006 -31.225084 0.000010 18.895310 0.929873 -6.312357 16.504225 7.216452 -4.634095 7.479289 23.868690 2.328146 -5.444141 13.458740 16.564312 0.000003 -0.000000 -0.000002 2.641264 12.996507 -14.169043 0.455184 2.265938 -22.713560 0.275267 1.776370 -17.616151 0.000000 0.000002 0.000001 1.905368 10.156592 -14.321629 0.455179 2.265942 -22.713538 0.275281 1.776374 -17.616158 0.000001 -0.000002 0.000005 0.258598 3.857842 -14.787950 0.455176 2.265944 -22.713535 0.275272 1.776372 -17.616166 0.000000 0.000001 0.000009 -0.640879 0.490914 -15.111034 0.455172 2.265940 -22.713548 0.275276 1.776374 -17.616159 -0.000000 0.000003 0.000002 -0.348476 -1.833299 13.897941 15.694658 8.977092 54.527142 0.000021 40.842069 -0.000030 -3.343314 0.154665 13.087146 15.129745 -5.447667 5.213196 7.684656 -25.707538 -2.968361 -3.908391 -19.529423 -17.600629 0.000002 -0.000001 0.000001 -0.670230 -0.035296 14.371531 0.363128 -1.804551 22.752685 0.219625 -1.414722 17.647855 -0.000002 -0.000001 0.000001 0.189009 -3.419531 14.112941 0.363118 -1.804562 22.752668 0.219627 -1.414722 17.647853 -0.000000 -0.000000 -0.000004 1.769015 -9.747631 13.762684 0.363125 -1.804552 22.752695 0.219632 -1.414713 17.647850 0.000004 0.000001 -0.000005 2.478254 -12.599602 13.660981 0.363122 -1.804552 22.752689 0.219625 -1.414724 17.647860 -0.000003 -0.000000 0.000006 -18.321854 9.642017 15.562871 27.117477 0.132091 -0.702531 -12.687205 1.638677 -11.163851 -0.000103 -0.000005 -0.000002 -0.000000 0.000000 -0.000000 -19.158945 -7.363273 -12.327021 25.474125 -1.796018 -1.421977 -9.653511 -2.494030 12.687250 0.256680 -0.000003 -0.000000 -0.000000 0.000000 0.000000 
0.359642 88.588493 5.198240 4.344310 -1.357446 -0.901797 -0.695681 1.854467 -0.799159 -0.457531 1.079853 -0.314764 -0.454671 1.080412 -0.315378 -1.738736 -0.659146 -0.548414 -6.125450 -4.274945 2.079580 0.000000 0.000000 0.000000 -2.371260 -6.809387 -4.840587 12.446421 4.636279 -64.956308 0.000014 -31.249372 0.000009 18.846408 0.939182 -6.289699 16.504230 7.216449 -4.634093 7.479285 23.868687 2.328148 -5.444142 13.458745 16.564312 -0.000000 -0.000002 -0.000001 2.641263 12.996509 -14.169041 0.455179 2.265940 -22.713565 0.275270 1.776372 -17.616151 0.000002 0.000001 -0.000000 1.905369 10.156595 -14.321628 0.455175 2.265940 -22.713540 0.275278 1.776371 -17.616154 -0.000001 0.000000 0.000003 0.258599 3.857843 -14.787952 0.455176 2.265944 -22.713535 0.275272 1.776373 -17.616158 0.000002 -0.000000 0.000004 -0.640876 0.490916 -15.111032 0.455178 2.265941 -22.713550 0.275280 1.776376 -17.616158 -0.000003 0.000003 0.000001 -0.347072 -1.845648 13.933382 15.631375 9.040672 54.490778 0.000007 40.852328 0.000010 -3.362658 0.185583 13.090123 15.129747 -5.447665 5.213196 7.684654 -25.707539 -2.968358 -3.908385 -19.529416 -17.600627 0.000002 -0.000001 0.000001 -0.670232 -0.035292 14.371536 0.363129 -1.804557 22.752678 0.219623 -1.414729 17.647850 -0.000005 -0.000003 -0.000001 0.189008 -3.419528 14.112942 0.363117 -1.804561 22.752675 0.219626 -1.414721 17.647855 -0.000001 0.000000 -0.000004 1.769017 -9.747626 13.762687 0.363126 -1.804553 22.752695 0.219633 -1.414714 17.647851 -0.000003 0.000001 -0.000005 2.478255 -12.599603 13.660980 0.363121 -1.804549 22.752690 0.219626 -1.414727 17.647856 0.000000 -0.000001 -0.000001 -18.511520 9.604352 15.606448 27.070780 0.090069 -0.702695 -12.602591 1.632493 -11.162017 -0.000013 -0.000002 -0.000001 0.000000 0.000000 -0.000000 -19.250038 -7.427272 -12.331735 25.385346 -1.833497 -1.306806 -9.609929 -2.450080 12.607140 0.305262 -0.000000 -0.000001 0.000000 0.000001 -0.000000 
0.334013 88.601166 5.188422 4.466659 -1.296375 -0.934675 -0.701424 1.840655 -0.802642 -0.455794 1.072479 -0.319982 -0.452844 1.073149 -0.320403 -1.811527 -0.667347 -0.518966 -6.271429 -4.285626 2.092584 0.000000 0.000000 0.000000 -2.362210 -6.841059 -4.780925 12.390161 4.566329 -64.932006 0.000007 -31.296261 0.000010 18.774139 0.935642 -6.266333 16.504228 7.216453 -4.634094 7.479283 23.868687 2.328148 -5.444142 13.458744 16.564315 0.000001 0.000003 0.000002 2.641266 12.996508 -14.169040 0.455186 2.265933 -22.713558 0.275270 1.776372 -17.616144 0.000002 0.000001 -0.000000 1.905369 10.156594 -14.321629 0.455185 2.265941 -22.713538 0.275280 1.776370 -17.616152 -0.000004 -0.000002 0.000005 0.258602 3.857845 -14.787947 0.455183 2.265944 -22.713533 0.275270 1.776371 -17.616158 0.000001 0.000001 0.000004 -0.640876 0.490916 -15.111027 0.455179 2.265943 -22.713546 0.275276 1.776374 -17.616159 -0.000003 0.000002 -0.000003 -0.345271 -1.839262 13.956137 15.547624 9.130091 54.444701 0.000007 40.887886 0.000006 -3.435884 0.238734 13.075169 15.129742 -5.447666 5.213195 7.684657 -25.707538 -2.968361 -3.908388 -19.529420 -17.600627 -0.000001 0.000000 -0.000000 -0.670228 -0.035294 14.371536 0.363131 -1.804558 22.752677 0.219621 -1.414725 17.647846 -0.000001 -0.000001 -0.000001 0.189007 -3.419529 14.112937 0.363120 -1.804563 22.752672 0.219624 -1.414724 17.647853 -0.000003 0.000000 -0.000009 1.769013 -9.747632 13.762682 0.363126 -1.804554 22.752690 0.219627 -1.414721 17.647855 0.000001 -0.000000 0.000000 2.478255 -12.599606 13.660982 0.363124 -1.804550 22.752692 0.219626 -1.414723 17.647856 0.000003 0.000003 0.000003 -18.683221 9.568571 15.650122 27.028575 0.052322 -0.698777 -12.522722 1.626715 -11.166685 -0.000034 -0.000003 -0.000012 -0.000000 -0.000000 -0.000000 -19.329283 -7.502060 -12.340330 25.302827 -1.858981 -1.188034 -9.565261 -2.404689 12.520426 0.350347 -0.000004 0.000002 -0.000000 -0.000003 0.000000 
0.309551 88.611130 5.178468 4.567304 -1.239010 -0.964345 -0.686915 1.830970 -0.809965 -0.444451 1.067512 -0.326937 -0.441440 1.068208 -0.327261 -1.884678 -0.672184 -0.493959 -6.412231 -4.284207 2.106368 0.000001 -0.000000 -0.000000 -2.351334 -6.882520 -4.710808 12.327176 4.480975 -64.920695 0.000005 -31.350770 0.000003 18.689764 0.924017 -6.243566 16.504232 7.216450 -4.634088 7.479287 23.868687 2.328144 -5.444142 13.458741 16.564312 0.000001 0.000003 -0.000001 2.641258 12.996509 -14.169040 0.455183 2.265939 -22.713565 0.275271 1.776372 -17.616151 0.000002 0.000004 -0.000002 1.905366 10.156594 -14.321629 0.455176 2.265942 -22.713540 0.275280 1.776372 -17.616159 -0.000002 -0.000001 0.000002 0.258597 3.857844 -14.787952 0.455175 2.265943 -22.713536 0.275270 1.776373 -17.616161 -0.000001 0.000000 0.000008 -0.640876 0.490913 -15.111032 0.455175 2.265940 -22.713548 0.275272 1.776376 -17.616156 -0.000001 0.000001 0.000002 -0.343603 -1.814504 13.958359 15.463967 9.246378 54.388004 0.000004 40.956953 0.000031 -3.562548 0.309952 13.053016 15.129743 -5.447666 5.213197 7.684655 -25.707545 -2.968360 -3.908388 -19.529423 -17.600622 0.000001 0.000000 0.000001 -0.670229 -0.035296 14.371536 0.363127 -1.804555 22.752680 0.219619 -1.414722 17.647848 -0.000003 0.000004 0.000001 0.189011 -3.419530 14.112937 0.363118 -1.804560 22.752668 0.219627 -1.414722 17.647853 -0.000003 0.000001 -0.000006 1.769017 -9.747629 13.762683 0.363125 -1.804553 22.752694 0.219632 -1.414720 17.647853 -0.000001 0.000000 -0.000002 2.478256 -12.599601 13.660979 0.363125 -1.804554 22.752685 0.219630 -1.414725 17.647855 -0.000003 -0.000001 0.000000 -18.831426 9.536460 15.690838 26.995095 0.017818 -0.693419 -12.452286 1.620580 -11.173861 0.000020 0.000001 0.000002 -0.000000 0.000000 0.000000 -19.396487 -7.579283 -12.353063 25.230859 -1.869841 -1.072540 -9.514109 -2.363911 12.432933 0.380352 0.000000 0.000003 -0.000000 -0.000001 0.000000 
0.288659 88.618690 5.168699 4.638837 -1.187466 -0.989806 -0.657613 1.829638 -0.820063 -0.425602 1.067387 -0.335071 -0.422559 1.068045 -0.335358 -1.936753 -0.674820 -0.475756 -6.505097 -4.280302 2.127729 0.000000 0.000000 0.000000 -2.338417 -6.936885 -4.629829 12.263673 4.375987 -64.922089 0.000016 -31.392779 0.000025 18.610391 0.912980 -6.223142 16.504233 7.216451 -4.634093 7.479289 23.868685 2.328143 -5.444146 13.458746 16.564315 0.000000 0.000001 0.000000 2.641261 12.996507 -14.169038 0.455187 2.265938 -22.713564 0.275270 1.776374 -17.616154 -0.000002 -0.000001 -0.000004 1.905372 10.156592 -14.321625 0.455180 2.265943 -22.713541 0.275279 1.776371 -17.616152 -0.000001 0.000000 0.000003 0.258600 3.857842 -14.787945 0.455174 2.265943 -22.713533 0.275271 1.776369 -17.616163 -0.000000 -0.000003 0.000003 -0.640875 0.490915 -15.111027 0.455174 2.265942 -22.713552 0.275279 1.776372 -17.616156 -0.000000 0.000005 0.000002 -0.342537 -1.772861 13.933871 15.393124 9.378234 54.326666 0.000019 41.055164 -0.000020 -3.728572 0.388683 13.031815 15.129747 -5.447666 5.213195 7.684654 -25.707539 -2.968362 -3.908381 -19.529420 -17.600626 -0.000002 -0.000001 0.000001 -0.670226 -0.035298 14.371538 0.363129 -1.804555 22.752682 0.219622 -1.414721 17.647853 -0.000000 -0.000001 -0.000001 0.189010 -3.419529 14.112941 0.363123 -1.804563 22.752670 0.219624 -1.414721 17.647853 -0.000002 -0.000000 -0.000007 1.769014 -9.747630 13.762683 0.363125 -1.804551 22.752690 0.219630 -1.414719 17.647853 -0.000002 0.000001 -0.000003 2.478255 -12.599603 13.660980 0.363120 -1.804545 22.752690 0.219629 -1.414725 17.647856 0.000000 -0.000000 0.000002 -18.946294 9.509714 15.725587 26.970899 -0.016251 -0.688478 -12.394649 1.615778 -11.179132 -0.000050 0.000004 0.000001 0.000000 -0.000000 -0.000000 -19.443911 -7.653620 -12.367225 25.170388 -1.864974 -0.968531 -9.458288 -2.331453 12.350605 0.394797 -0.000015 0.000004 -0.000000 0.000000 0.000000 
